<svg width="46" height="45" viewBox="0 0 46 45" fill="none" xmlns="http://www.w3.org/2000/svg">
<g clip-path="url(#clip0)">
<path d="M24.9744 11.3759L23.7756 11.4492L18.4299 12.703L12.7698 20.5669V28.771L18.4524 35.5386L23.7532 37.0657L24.9744 37.1022C31.4544 36.245 36.4499 30.8131 36.4499 24.2391C36.4499 17.665 31.4544 12.2331 24.9744 11.3759Z" fill="#DBEDFF"/>
<path d="M3.4762 24.4061H5.95652C5.98032 24.4061 6.00368 24.4074 6.02686 24.4095V15.4716H3.40576V24.4095C3.42903 24.4074 3.45248 24.4061 3.4762 24.4061Z" fill="#8BCAFF"/>
<path d="M41.3944 22.5895V26.1198C41.4177 26.1174 41.4411 26.116 41.4648 26.116H43.9452C43.969 26.116 43.9923 26.1174 44.0155 26.1198V22.5895H41.3944Z" fill="#8BCAFF"/>
<path d="M13.4988 24.2392C13.4988 17.6651 18.4943 12.2332 24.9743 11.376C24.3872 11.2983 23.7883 11.2574 23.1795 11.2574C15.8505 11.2574 9.90918 17.0695 9.90918 24.2392C9.90918 31.4088 15.8505 37.221 23.1795 37.221C23.7882 37.221 24.3872 37.18 24.9743 37.1023C18.4943 36.2451 13.4988 30.8132 13.4988 24.2392Z" fill="#B5DCFF"/>
<path d="M7.33361 38.0949L6.70758 24.9209C6.68629 24.5302 6.35629 24.2241 5.95649 24.2241H3.47608C3.07619 24.2241 2.74619 24.5302 2.72499 24.9208L2.09887 38.0948C2.01909 39.5624 3.21401 40.7951 4.71629 40.7951C6.21856 40.7951 7.41349 39.5624 7.33361 38.0949Z" fill="#FFAA5B"/>
<path d="M4.07929 12.7031L3.89197 12.8684V14.0874L4.3915 15.4716H6.749C7.85884 15.4716 8.75844 14.5916 8.75844 13.5059V12.7031H4.07929Z" fill="#DBEDFF"/>
<path d="M4.07945 13.4731V12.7031H0.673828V13.5059C0.673828 14.5916 1.57352 15.4716 2.68327 15.4716H4.85399C4.37234 14.9394 4.07945 14.2399 4.07945 13.4731Z" fill="#B5DCFF"/>
<path d="M45.3223 38.0949L44.6963 26.5791C44.675 26.1884 44.345 25.8823 43.9452 25.8823H41.4649C41.065 25.8823 40.735 26.1884 40.7138 26.579L40.0876 38.0948C40.0079 39.5624 41.2028 40.795 42.7051 40.795C44.2072 40.7951 45.4021 39.5624 45.3223 38.0949Z" fill="#FFAA5B"/>
<path d="M4.30582 38.0949L4.93194 24.9209C4.95315 24.5302 5.28314 24.2241 5.68304 24.2241H3.47621C3.07631 24.2241 2.74631 24.5302 2.72511 24.9209L2.09899 38.0949C2.01921 39.5625 3.21413 40.7951 4.71641 40.7951C5.11145 40.7951 5.48493 40.7092 5.81987 40.5568C4.88109 40.1298 4.24706 39.1765 4.30582 38.0949Z" fill="#FF9838"/>
<path d="M42.2946 38.0949L42.9207 26.5791C42.9419 26.1884 43.2719 25.8824 43.6718 25.8824H41.4649C41.065 25.8824 40.735 26.1885 40.7138 26.5791L40.0876 38.0949C40.0079 39.5625 41.2028 40.7951 42.7051 40.7951C43.1001 40.7951 43.4736 40.7092 43.8085 40.5568C42.8698 40.1298 42.2358 39.1765 42.2946 38.0949Z" fill="#FF9838"/>
<path d="M44.7991 4.83319L42.4032 6.54943L40.801 10.109V20.7877L42.0813 21.4652L42.705 22.5199L43.2539 22.7848H44.3179C44.7755 22.7848 45.1465 22.4219 45.1465 21.9743V5.18985C45.1465 5.06276 45.1224 4.94279 45.0791 4.83319H44.7991Z" fill="#DBEDFF"/>
<path d="M42.7904 22.2376C42.5646 21.57 42.0884 21.0142 41.4703 20.6767C41.2074 20.5331 41.0432 20.263 41.0432 19.9685V11.6041C41.0432 8.76683 42.6168 6.19647 45.0789 4.83328C44.8907 4.35762 44.3383 4.07769 43.806 4.26015C40.6173 5.35368 38.4827 8.29846 38.4827 11.604V19.9684C38.4827 20.263 38.6468 20.533 38.9098 20.6766C39.5278 21.0141 40.0041 21.57 40.2299 22.2376C40.341 22.5661 40.659 22.7849 41.0128 22.7849H43.5734C43.2197 22.7849 42.9015 22.5662 42.7904 22.2376Z" fill="#B5DCFF"/>
<path d="M24.9743 14.8369H22.9895L18.9915 17.7628L16.3186 22.5895V27.3503L19.1889 31.7856L23.1796 33.6783L24.9744 33.6413C29.5163 32.8168 32.9558 28.9211 32.9558 24.2391C32.9557 19.5571 29.5162 15.6615 24.9743 14.8369Z" fill="#B5DCFF"/>
<path d="M16.9932 24.2392C16.9932 19.5572 20.4327 15.6615 24.9745 14.837C24.3927 14.7314 23.7929 14.6756 23.1797 14.6756C17.7805 14.6756 13.4036 18.9574 13.4036 24.2393C13.4036 29.5211 17.7805 33.8028 23.1797 33.8028C23.7929 33.8028 24.3926 33.747 24.9745 33.6415C20.4327 32.8168 16.9932 28.9212 16.9932 24.2392Z" fill="#8BCAFF"/>
<path d="M9.23547 24.2392C9.23547 31.7609 15.4908 37.8802 23.1796 37.8802C30.8684 37.8802 37.1237 31.7609 37.1237 24.2392C37.1237 16.7175 30.8684 10.5982 23.1796 10.5982C15.4908 10.5982 9.23547 16.7175 9.23547 24.2392ZM23.1796 11.9166C30.1253 11.9166 35.776 17.4445 35.776 24.2392C35.776 31.0338 30.1253 36.5617 23.1796 36.5617C16.2339 36.5617 10.5831 31.0338 10.5831 24.2391C10.5831 17.4444 16.2339 11.9166 23.1796 11.9166Z" fill="black"/>
<path d="M8.00669 38.062L7.38048 24.8857C7.35452 24.4112 7.08786 24.0035 6.70073 23.7711V16.1308H6.74924C8.22888 16.1308 9.43252 14.9533 9.43252 13.5059C9.43252 12.5981 9.43252 6.07729 9.43252 5.17017C9.43252 4.80612 9.13091 4.51099 8.75869 4.51099C8.38647 4.51099 8.08486 4.80612 8.08486 5.17017V12.0439H6.70073V5.17017C6.70073 4.80612 6.39912 4.51099 6.0269 4.51099C5.65468 4.51099 5.35307 4.80612 5.35307 5.17017V12.0439H4.07954V5.17017C4.07954 4.80612 3.77793 4.51099 3.40571 4.51099C3.03348 4.51099 2.73188 4.80612 2.73188 5.17017V12.0439H1.34766V5.17017C1.34766 4.80612 1.04605 4.51099 0.673828 4.51099C0.301605 4.51099 0 4.80612 0 5.17017V13.5059C0 14.9533 1.20364 16.1308 2.68327 16.1308H2.73188V23.7713C2.34456 24.0041 2.07791 24.4129 2.05194 24.8903L1.426 38.0599C1.32555 39.9078 2.82621 41.4544 4.71635 41.4544C6.60621 41.4543 8.10579 39.9084 8.00669 38.062ZM1.34766 13.5059V13.3623H8.08486V13.5059C8.08486 14.2263 7.48569 14.8125 6.74924 14.8125C5.8376 14.8125 3.54308 14.8125 2.68327 14.8125C1.94682 14.8125 1.34766 14.2263 1.34766 13.5059ZM5.35307 16.1308V23.5649H4.07954V16.1308H5.35307ZM4.71635 40.136C3.60354 40.136 2.71211 39.228 2.77195 38.1255L3.39789 24.9559C3.40005 24.9152 3.43446 24.8833 3.47605 24.8833H3.47641L5.95943 24.8839C5.99968 24.8854 6.03256 24.9162 6.03445 24.9515L6.66048 38.1255C6.66057 38.127 6.66066 38.1285 6.66075 38.1299C6.72022 39.2221 5.83337 40.136 4.71635 40.136Z" fill="black"/>
<path d="M21.308 34.298C21.6741 34.3627 22.0248 34.1249 22.091 33.7667C22.1573 33.4085 21.9141 33.0655 21.5479 33.0006C17.2193 32.2345 14.0776 28.5497 14.0776 24.2391C14.0776 19.3292 18.1609 15.3346 23.1799 15.3346C28.1989 15.3346 32.2821 19.3292 32.2821 24.2391C32.2821 28.643 28.9267 32.4323 24.4773 33.0531C24.1088 33.1045 23.8528 33.4383 23.9054 33.7988C23.9533 34.1277 24.2416 34.365 24.5716 34.365C24.6033 34.365 24.6354 34.3628 24.6675 34.3583C27.1342 34.0141 29.4004 32.8092 31.0487 30.9656C32.713 29.1039 33.6298 26.7151 33.6298 24.2391C33.6298 18.6022 28.9419 14.0163 23.1799 14.0163C17.4178 14.0163 12.73 18.6022 12.73 24.2391C12.73 29.1879 16.3376 33.4182 21.308 34.298Z" fill="black"/>
<path d="M45.7753 34.0127C45.7555 33.6491 45.4365 33.3699 45.0666 33.3895C44.695 33.4088 44.4098 33.7192 44.4296 34.0828L44.6496 38.1299C44.709 39.222 43.8221 40.136 42.7051 40.136C41.5871 40.136 40.7013 39.2212 40.7604 38.1299L41.3866 26.6141C41.3888 26.5734 41.4232 26.5415 41.4649 26.5415L43.9479 26.542C43.9882 26.5434 44.0213 26.5743 44.0235 26.6141L44.2622 31.0065C44.282 31.3702 44.5996 31.6501 44.9709 31.6297C45.3425 31.6104 45.6277 31.3 45.6079 30.9364L45.3692 26.5438C45.3433 26.0693 45.0766 25.6617 44.6895 25.4292V23.3966C45.3384 23.2341 45.8203 22.659 45.8203 21.9742V5.18985C45.8203 4.65776 45.5555 4.15635 45.1117 3.84855C44.668 3.54076 44.0966 3.46201 43.5832 3.63805C40.1295 4.82247 37.809 8.02371 37.809 11.604V19.9684C37.809 20.5 38.105 20.992 38.5814 21.2521C39.0605 21.5138 39.4187 21.9372 39.5903 22.4446C39.7614 22.9504 40.1975 23.3147 40.7205 23.4151V25.4293C40.3333 25.6618 40.0666 26.0694 40.0409 26.544L39.4146 38.0598C39.3141 39.9079 40.815 41.4542 42.705 41.4542C44.5967 41.4542 46.0956 39.9061 45.9952 38.0597L45.7753 34.0127ZM42.0684 23.444H43.3419V25.2231H42.0684V23.444ZM39.2385 20.1011C39.1881 20.0736 39.1568 20.0227 39.1568 19.9685V11.6041C39.1568 8.58305 41.1149 5.88173 44.0292 4.88232C44.1704 4.83407 44.2798 4.88768 44.3323 4.92407C44.3847 4.96046 44.4728 5.04325 44.4728 5.18985V21.9743C44.4728 22.0578 44.4034 22.1257 44.318 22.1257H44.0157H41.3945H41.0132C40.9477 22.1257 40.8888 22.0866 40.8698 22.0306C40.5922 21.2091 40.0127 20.524 39.2385 20.1011Z" fill="black"/>
</g>
<defs>
<clipPath id="clip0">
<rect width="46" height="45" fill="white"/>
</clipPath>
</defs>
</svg>
