<svg width="48" height="48" viewBox="0 0 48 48" fill="none" xmlns="http://www.w3.org/2000/svg">
<path fill-rule="evenodd" clip-rule="evenodd" d="M11.0002 8C11.0002 5.23858 13.2388 3 16.0002 3H32.0002C34.7616 3 37.0002 5.23858 37.0002 8V40C37.0002 42.7614 34.7616 45 32.0002 45H16.0002C13.2388 45 11.0002 42.7614 11.0002 40V8ZM16.0002 5C14.3434 5 13.0002 6.34314 13.0002 8V40C13.0002 41.6568 14.3434 43 16.0002 43H32.0002C33.657 43 35.0002 41.6568 35.0002 40V8C35.0002 6.34314 33.657 5 32.0002 5H16.0002Z" fill="#131313"/>
<path fill-rule="evenodd" clip-rule="evenodd" d="M17.0002 4C17.0002 3.44772 17.448 3 18.0002 3H30.0002C30.5524 3 31.0002 3.44772 31.0002 4V6C31.0002 7.65686 29.657 9 28.0002 9H20.0002C18.3434 9 17.0002 7.65686 17.0002 6V4ZM19.0002 5V6C19.0002 6.55228 19.448 7 20.0002 7H28.0002C28.5524 7 29.0002 6.55228 29.0002 6V5H19.0002Z" fill="#131313"/>
</svg>
