<svg width="48" height="48" viewBox="0 0 48 48" fill="none" xmlns="http://www.w3.org/2000/svg">
<path d="M43.4595 44.7568H4.54061C3.68076 44.7558 2.85643 44.4137 2.24842 43.8057C1.64042 43.1977 1.29839 42.3734 1.29736 41.5135V39.5676C1.29736 39.3956 1.3657 39.2306 1.48735 39.1089C1.60899 38.9873 1.77398 38.9189 1.94601 38.9189H46.0541C46.2261 38.9189 46.3911 38.9873 46.5128 39.1089C46.6344 39.2306 46.7028 39.3956 46.7028 39.5676V41.5135C46.7017 42.3734 46.3597 43.1977 45.7517 43.8057C45.1437 44.4137 44.3194 44.7558 43.4595 44.7568ZM2.59466 40.2162V41.5135C2.59466 42.0296 2.79968 42.5246 3.16461 42.8895C3.52955 43.2545 4.02451 43.4595 4.54061 43.4595H43.4595C43.9756 43.4595 44.4706 43.2545 44.8355 42.8895C45.2004 42.5246 45.4055 42.0296 45.4055 41.5135V40.2162H2.59466Z" fill="#131313"/>
<path d="M42.8108 40.2162H5.18918C5.01714 40.2162 4.85216 40.1479 4.73051 40.0262C4.60887 39.9046 4.54053 39.7396 4.54053 39.5676V38.2703C4.54053 33.1093 6.59071 28.1597 10.2401 24.5103C13.8894 20.861 18.839 18.8108 24 18.8108C29.161 18.8108 34.1105 20.861 37.7599 24.5103C41.4093 28.1597 43.4594 33.1093 43.4594 38.2703V39.5676C43.4594 39.7396 43.3911 39.9046 43.2695 40.0262C43.1478 40.1479 42.9828 40.2162 42.8108 40.2162ZM5.83782 38.9189H42.1621V38.2703C42.1621 33.4533 40.2486 28.8337 36.8426 25.4277C33.4365 22.0216 28.8169 20.1081 24 20.1081C19.1831 20.1081 14.5635 22.0216 11.1574 25.4277C7.75133 28.8337 5.83782 33.4533 5.83782 38.2703V38.9189Z" fill="#131313"/>
<path d="M26.627 20.2898C26.5251 20.29 26.4245 20.2661 26.3335 20.2202C26.2424 20.1743 26.1635 20.1075 26.1031 20.0254C26.0427 19.9433 26.0025 19.848 25.9858 19.7475C25.9691 19.6469 25.9763 19.5438 26.0069 19.4465L26.9799 16.3155C26.9926 16.2743 26.9968 16.231 26.9921 16.1881C26.9874 16.1453 26.974 16.1039 26.9526 16.0664C26.9301 16.0264 26.8996 15.9915 26.863 15.9638C26.8264 15.9361 26.7845 15.9163 26.7399 15.9055C24.9409 15.4545 23.0584 15.4545 21.2595 15.9055C21.2148 15.9163 21.1729 15.9361 21.1363 15.9638C21.0997 15.9915 21.0692 16.0264 21.0467 16.0664C21.0254 16.1039 21.012 16.1453 21.0073 16.1881C21.0026 16.231 21.0067 16.2743 21.0195 16.3155L21.9924 19.4465C22.0419 19.6104 22.0246 19.7871 21.9443 19.9382C21.864 20.0894 21.7272 20.2027 21.5638 20.2534C21.4003 20.3042 21.2235 20.2883 21.0717 20.2092C20.9199 20.1301 20.8055 19.9942 20.7535 19.8312L19.7838 16.7027C19.7179 16.4931 19.6959 16.2721 19.7192 16.0536C19.7426 15.8351 19.8107 15.6237 19.9193 15.4327C20.0289 15.239 20.1768 15.0697 20.3538 14.935C20.5309 14.8003 20.7335 14.703 20.9494 14.6491C22.9536 14.1467 25.0509 14.1467 27.0551 14.6491C27.271 14.703 27.4736 14.8003 27.6507 14.935C27.8278 15.0697 27.9756 15.239 28.0852 15.4327C28.1931 15.624 28.2604 15.8355 28.283 16.0541C28.3055 16.2726 28.2828 16.4934 28.2162 16.7027L27.2432 19.8331C27.2024 19.9649 27.1207 20.0802 27.0099 20.1623C26.899 20.2444 26.7649 20.289 26.627 20.2898Z" fill="#131313"/>
<path d="M35.6107 17.0205C35.5173 17.0206 35.4249 17.0005 35.3399 16.9615C35.2549 16.9226 35.1794 16.8657 35.1184 16.7948L34.0118 15.5072C33.7828 15.2426 33.6115 14.9332 33.5088 14.5987C33.4061 14.2642 33.3742 13.9119 33.4152 13.5644C33.4563 13.2169 33.5692 12.8817 33.747 12.5803C33.9248 12.2789 34.1634 12.0179 34.4477 11.8138C34.5824 11.7178 34.6961 11.5953 34.7821 11.454C34.868 11.3126 34.9243 11.1552 34.9475 10.9914C34.9707 10.8276 34.9604 10.6608 34.9172 10.5011C34.874 10.3415 34.7988 10.1922 34.6961 10.0625L33.4922 8.51999C33.3878 8.38424 33.3413 8.21267 33.3628 8.04274C33.3844 7.8728 33.4723 7.7183 33.6074 7.61295C33.7425 7.5076 33.9137 7.45995 34.0838 7.48041C34.2539 7.50087 34.4089 7.58778 34.5152 7.72216L35.7191 9.26464C35.9288 9.5319 36.0823 9.83884 36.1703 10.167C36.2582 10.4951 36.2789 10.8377 36.231 11.174C36.1832 11.5103 36.0677 11.8335 35.8917 12.124C35.7156 12.4146 35.4826 12.6665 35.2066 12.8646C35.0679 12.9635 34.9515 13.0904 34.8647 13.237C34.778 13.3836 34.7229 13.5467 34.703 13.7159C34.6831 13.885 34.6988 14.0565 34.7491 14.2192C34.7994 14.3819 34.8832 14.5324 34.9952 14.6608L36.1018 15.9483C36.1829 16.0424 36.2353 16.1577 36.2527 16.2807C36.2702 16.4037 36.252 16.529 36.2003 16.642C36.1485 16.7549 36.0655 16.8506 35.961 16.9177C35.8565 16.9848 35.7349 17.0205 35.6107 17.0205Z" fill="#131313"/>
<path d="M13.9947 17.0205C13.9012 17.0206 13.8088 17.0005 13.7238 16.9615C13.6389 16.9226 13.5633 16.8657 13.5024 16.7948L12.3951 15.5072C12.1662 15.2426 11.995 14.9331 11.8923 14.5986C11.7897 14.2641 11.7578 13.9119 11.7988 13.5644C11.8399 13.217 11.9528 12.8818 12.1305 12.5804C12.3082 12.279 12.5468 12.0179 12.831 11.8138C12.9658 11.7178 13.0796 11.5954 13.1656 11.454C13.2515 11.3127 13.3078 11.1553 13.3311 10.9915C13.3543 10.8277 13.344 10.6608 13.3007 10.5011C13.2575 10.3414 13.1822 10.1922 13.0794 10.0625L11.8756 8.51999C11.7711 8.38424 11.7246 8.21267 11.7461 8.04274C11.7677 7.8728 11.8556 7.7183 11.9907 7.61295C12.1258 7.5076 12.297 7.45995 12.4671 7.48041C12.6372 7.50087 12.7922 7.58778 12.8985 7.72216L14.1024 9.26464C14.3121 9.5319 14.4656 9.83884 14.5536 10.167C14.6415 10.4951 14.6622 10.8377 14.6143 11.174C14.5665 11.5103 14.451 11.8335 14.275 12.124C14.0989 12.4146 13.8659 12.6665 13.5899 12.8646C13.4513 12.9636 13.3349 13.0905 13.2483 13.237C13.1616 13.3836 13.1065 13.5468 13.0866 13.7159C13.0667 13.885 13.0824 14.0565 13.1326 14.2192C13.1829 14.3819 13.2666 14.5323 13.3785 14.6608L14.4857 15.9483C14.5666 16.0424 14.6189 16.1578 14.6362 16.2807C14.6535 16.4036 14.6352 16.5289 14.5834 16.6417C14.5317 16.7546 14.4486 16.8502 14.3442 16.9172C14.2397 16.9842 14.1182 17.0199 13.994 17.0199L13.9947 17.0205Z" fill="#131313"/>
<path d="M24.8037 12.7901C24.7102 12.7901 24.6178 12.77 24.5328 12.731C24.4478 12.6921 24.3723 12.6352 24.3113 12.5643L23.2047 11.2768C22.9759 11.0121 22.8046 10.7027 22.702 10.3682C22.5993 10.0337 22.5675 9.68146 22.6085 9.33398C22.6495 8.98649 22.7624 8.65136 22.9402 8.34995C23.1179 8.04854 23.3564 7.78747 23.6406 7.58337C23.7753 7.48729 23.889 7.36487 23.975 7.22352C24.0609 7.08217 24.1172 6.92483 24.1405 6.76107C24.1638 6.5973 24.1536 6.43051 24.1105 6.2708C24.0673 6.1111 23.9923 5.96182 23.8897 5.83201L22.6858 4.29082C22.5859 4.15482 22.5428 3.9852 22.5659 3.81799C22.589 3.65078 22.6763 3.49915 22.8094 3.3953C22.9424 3.29145 23.1108 3.24356 23.2786 3.2618C23.4464 3.28004 23.6005 3.36297 23.7081 3.49299L24.912 5.03547C25.1217 5.30273 25.2752 5.60967 25.3632 5.93781C25.4512 6.26594 25.4718 6.60849 25.424 6.94482C25.3761 7.28116 25.2607 7.60433 25.0846 7.89488C24.9086 8.18543 24.6755 8.43735 24.3996 8.63547C24.2609 8.73442 24.1445 8.86128 24.0578 9.0079C23.9712 9.15452 23.9161 9.31766 23.8963 9.48683C23.8764 9.65599 23.8922 9.82744 23.9425 9.99015C23.9929 10.1529 24.0768 10.3032 24.1887 10.4316L25.2973 11.7185C25.3782 11.8126 25.4304 11.928 25.4478 12.0509C25.4651 12.1738 25.4468 12.2991 25.395 12.4119C25.3433 12.5247 25.2602 12.6203 25.1557 12.6874C25.0513 12.7544 24.9297 12.79 24.8056 12.7901H24.8037Z" fill="#131313"/>
</svg>
