<svg width="45" height="45" viewBox="0 0 45 45" fill="none" xmlns="http://www.w3.org/2000/svg">
<path d="M33 6.37497L29.379 39.375H14.871L11.25 6.37497H33Z" fill="#4482C3"/>
<path d="M13.4998 0.375031H30.7499C31.5783 0.375031 32.2499 1.0466 32.2499 1.87506V4.87503H11.9999V1.87497C11.9998 1.0466 12.6714 0.375031 13.4998 0.375031Z" fill="#E6E7E8"/>
<path d="M11.2501 3.375H33.0001C33.8286 3.375 34.5001 4.04657 34.5001 4.87503V6.37506C34.5001 6.78929 34.1644 7.12503 33.7502 7.12503H10.5001C10.0859 7.12503 9.75012 6.7892 9.75012 6.37506V4.87503C9.75003 4.04657 10.4216 3.375 11.2501 3.375Z" fill="#D1D4D1"/>
<path d="M28.5 31.125V37.875H25.0575C24.8609 37.8765 24.6727 37.9545 24.5326 38.0925L21 41.625L17.4675 38.0925C17.3274 37.9545 17.1391 37.8765 16.9425 37.875H4.5V31.125H28.5Z" fill="#14A085"/>
<path d="M28.4998 28.1325C28.4576 28.1262 28.4149 28.1238 28.3723 28.125H4.4998C3.87464 28.1254 3.27786 28.3859 2.85247 28.8439C2.42708 29.302 2.21148 29.9165 2.25727 30.54C2.38594 31.745 3.41567 32.6509 4.62724 32.625H28.4997C29.1249 32.6246 29.7217 32.3641 30.1471 31.9061C30.5725 31.448 30.7881 30.8335 30.7423 30.21C30.6213 29.0532 29.6625 28.1649 28.4998 28.1325Z" fill="#804537"/>
<path d="M28.5 22.875V28.1326C28.4578 28.1263 28.4151 28.1239 28.3725 28.1251H17.5575C17.3609 28.1267 17.1726 28.2046 17.0325 28.3426L12.75 32.625L8.46756 28.3425C8.32746 28.2045 8.1392 28.1266 7.94259 28.125H4.5V22.875H28.5Z" fill="#F0C419"/>
<path d="M30.0001 24.375H3.00009C2.58586 24.375 2.25012 24.0392 2.25012 23.625V22.875C2.25012 20.8859 3.04026 18.9782 4.44686 17.5717C5.85346 16.1652 7.76104 15.375 9.75018 15.375H23.2502C27.3923 15.375 30.7502 18.7328 30.7502 22.8749V23.6249C30.7502 24.0392 30.4143 24.375 30.0001 24.375Z" fill="#F29C1F"/>
<path d="M30.7502 37.125V39.375C30.7502 41.8603 28.7354 43.875 26.2502 43.875H6.75012C4.26484 43.875 2.25012 41.8603 2.25012 39.375V37.125C2.25012 36.7108 2.58595 36.375 3.00009 36.375H16.9426C17.1392 36.3766 17.3275 36.4546 17.4676 36.5926L21.0001 40.1251L24.5326 36.5926C24.6727 36.4546 24.861 36.3766 25.0576 36.375H30.0001C30.4143 36.375 30.7502 36.7108 30.7502 37.125Z" fill="#F29C1F"/>
<path d="M10.5001 18.375H9.75009C9.33586 18.375 9.00012 18.7109 9.00012 19.125C9.00012 19.5392 9.33595 19.875 9.75009 19.875H10.5001C10.9143 19.875 11.25 19.5391 11.25 19.125C11.25 18.7108 10.9142 18.375 10.5001 18.375Z" fill="#E57E25"/>
<path d="M15.0001 19.875H14.2501C13.8359 19.875 13.5001 20.2108 13.5001 20.6249C13.5001 21.0392 13.836 21.3749 14.2501 21.3749H15.0001C15.4143 21.3749 15.75 21.0391 15.75 20.6249C15.75 20.2108 15.4143 19.875 15.0001 19.875Z" fill="#E57E25"/>
<path d="M24.0003 19.875H23.2503C22.8361 19.875 22.5004 20.2108 22.5004 20.6249C22.5004 21.0392 22.8362 21.3749 23.2503 21.3749H24.0003C24.4145 21.3749 24.7503 21.0391 24.7503 20.6249C24.7503 20.2108 24.4145 19.875 24.0003 19.875Z" fill="#E57E25"/>
<path d="M19.4998 18.375H18.7498C18.3356 18.375 17.9999 18.7109 17.9999 19.125C17.9999 19.5392 18.3356 19.875 18.7498 19.875H19.4998C19.914 19.875 20.2498 19.5391 20.2498 19.125C20.2498 18.7108 19.914 18.375 19.4998 18.375Z" fill="#E57E25"/>
<path d="M21.7498 24.39C21.6598 24.3825 21.5773 24.375 21.4873 24.375H20.8422C20.6693 24.3746 20.5049 24.45 20.3924 24.5813C20.2799 24.7126 20.2305 24.8866 20.2572 25.0574L23.1365 43.875H39.854L42.7415 25.05C42.7666 24.8789 42.7153 24.7054 42.6013 24.5755C42.4872 24.4456 42.3219 24.3722 42.149 24.375H41.5116C41.1668 24.3749 40.8244 24.4332 40.4991 24.5475L21.7498 24.39Z" fill="#E64C3C"/>
<path d="M33.0071 30.7575C31.7416 30.9612 30.4477 30.9051 29.2046 30.5925L29.2504 30.375V17.46C29.2508 17.1371 29.5125 16.8754 29.8354 16.875H32.4154C32.7383 16.8754 33 17.1371 33.0004 17.46V30.705L33.0071 30.7575Z" fill="#F0C419"/>
<path d="M25.5001 21.375V28.3125C24.9711 27.6854 24.548 26.976 24.2476 26.2125C23.826 25.1822 22.8599 24.4773 21.7501 24.39V21.96C21.7506 21.6371 22.0122 21.3755 22.3351 21.375H25.5001Z" fill="#F0C419"/>
<path d="M29.2499 18.375V30.375L29.2049 30.5925H29.1975C27.7522 30.2491 26.4558 29.4497 25.5 28.3126V18.96C25.5004 18.6371 25.7621 18.3755 26.085 18.375H29.2499Z" fill="#F3D55B"/>
<path d="M36.8249 28.995C35.755 29.9477 34.4263 30.5611 33.0073 30.7575L32.9999 30.705V18.375H35.9998C36.4141 18.375 36.7498 18.7109 36.7498 19.125V28.905L36.8249 28.995Z" fill="#F3D55B"/>
<path d="M40.4999 21.21V24.5475C39.705 24.8251 39.0681 25.4319 38.7524 26.2125C38.3378 27.2769 37.6803 28.2297 36.8324 28.995H36.825L36.75 28.905V20.625H39.915C40.2379 20.6254 40.4995 20.8871 40.4999 21.21Z" fill="#F0C419"/>
<path d="M31.124 40.875C32.988 40.875 34.499 39.364 34.499 37.5C34.499 35.6361 32.988 34.125 31.124 34.125C29.2601 34.125 27.749 35.6361 27.749 37.5C27.749 39.364 29.2601 40.875 31.124 40.875Z" fill="#E6E7E8"/>
<path d="M44.25 44.625H0.749971C0.33583 44.625 0 44.2892 0 43.875C0 43.4608 0.33583 43.125 0.749971 43.125H44.2499C44.6642 43.125 44.9999 43.4609 44.9999 43.875C45 44.2892 44.6643 44.625 44.25 44.625Z" fill="#804537"/>
</svg>
