<svg width="48" height="48" viewBox="0 0 48 48" fill="none" xmlns="http://www.w3.org/2000/svg">
<path d="M46.1931 35.856C45.952 34.4493 45.3448 33.1309 44.4324 32.0333C43.5201 30.9358 42.3349 30.0978 40.996 29.6036C40.5954 26.0016 39.6765 22.4763 38.2678 19.137L38.7272 19.1929C38.9658 19.4641 39.2814 19.656 39.632 19.7431C39.9825 19.8301 40.3513 19.8081 40.689 19.68C41.0267 19.5519 41.3173 19.3238 41.5219 19.0261C41.7265 18.7285 41.8354 18.3755 41.8341 18.0143V13.5143C41.8345 13.1061 41.6945 12.7102 41.4377 12.393C41.1809 12.0758 40.8229 11.8564 40.4236 11.7718C40.0243 11.6872 39.6081 11.7424 39.2447 11.9283C38.8813 12.1141 38.5928 12.4192 38.4276 12.7924L32.6211 13.9268V10.2563C32.6184 9.68806 32.4503 9.13294 32.1373 8.65872C31.8243 8.1845 31.38 7.8117 30.8586 7.58589V6.87976C30.8586 6.40734 30.6709 5.95428 30.3369 5.62023C30.0028 5.28618 29.5497 5.09851 29.0773 5.09851C28.6049 5.09851 28.1518 5.28618 27.8178 5.62023C27.4837 5.95428 27.2961 6.40734 27.2961 6.87976V9.12976C27.2929 9.60188 27.4773 10.0559 27.8089 10.3921C28.1404 10.7282 28.5919 10.9188 29.064 10.9221C29.5361 10.9253 29.9902 10.7409 30.3263 10.4093C30.6624 10.0778 30.8531 9.62625 30.8563 9.15414C31.143 9.44966 31.3042 9.84458 31.3063 10.2563V13.9669C31.0094 14.0533 30.7325 14.1976 30.4916 14.3916C30.2508 14.5855 30.0507 14.8252 29.9029 15.0968C29.7551 15.3685 29.6625 15.6667 29.6306 15.9743C29.5986 16.2819 29.6278 16.5927 29.7166 16.889C29.8053 17.1852 29.9518 17.4609 30.1476 17.7003C30.3435 17.9396 30.5847 18.1378 30.8575 18.2835C31.1303 18.4291 31.4293 18.5193 31.7371 18.5488C32.0449 18.5784 32.3556 18.5467 32.6511 18.4556L32.8386 18.4785L33.5095 23.826C33.6714 25.1091 33.4339 26.411 32.8292 27.5543C32.4485 28.2831 31.9271 28.9291 31.2951 29.4551C31.0471 29.6621 30.7838 29.8502 30.5076 30.0176C29.522 30.6106 28.3938 30.9247 27.2436 30.9263H24.2773C23.8735 30.9277 23.4844 30.7746 23.1898 30.4984C22.894 30.2218 22.6582 29.8874 22.4969 29.5159C22.3357 29.1444 22.2524 28.7437 22.2523 28.3388C22.2518 27.8135 22.3928 27.2979 22.6603 26.8459L22.6978 26.7814C23.1202 26.0633 23.3431 25.2455 23.3436 24.4125C23.3424 24.1512 23.3062 23.8913 23.236 23.6396C23.6954 23.3922 24.0591 22.9986 24.2695 22.521C24.4798 22.0435 24.5248 21.5094 24.3972 21.0034C24.2696 20.4975 23.9768 20.0485 23.5652 19.7278C23.1535 19.4071 22.6466 19.233 22.1248 19.233H15.4686V8.63926C15.4686 8.46521 15.3994 8.29829 15.2764 8.17522C15.1533 8.05215 14.9864 7.98301 14.8123 7.98301H3.56233C3.38829 7.98301 3.22137 8.05215 3.0983 8.17522C2.97522 8.29829 2.90608 8.46521 2.90608 8.63926V19.8893C2.90608 20.0633 2.97522 20.2302 3.0983 20.3533C3.22137 20.4764 3.38829 20.5455 3.56233 20.5455H6.92946C6.71373 20.9809 6.63951 21.4728 6.71717 21.9524C6.79483 22.432 7.0205 22.8754 7.36258 23.2204C6.07472 24.1063 5.02169 25.2923 4.2943 26.6759C3.56692 28.0595 3.18701 29.5993 3.18733 31.1625V32.5043C2.58321 33.4923 2.12831 34.5641 1.83733 35.685C1.76927 35.9483 1.76239 36.2237 1.81722 36.4901C1.87205 36.7564 1.98713 37.0067 2.15364 37.2217C2.32015 37.4368 2.53368 37.6108 2.77786 37.7305C3.02203 37.8503 3.29038 37.9125 3.56233 37.9125H4.67271C4.93186 39.3146 5.67389 40.5817 6.76994 41.4938C7.86598 42.4058 9.24683 42.9052 10.6727 42.9052C12.0986 42.9052 13.4794 42.4058 14.5755 41.4938C15.6715 40.5817 16.4136 39.3146 16.6727 37.9125H18.5323C18.9269 37.9127 19.3104 37.7818 19.6226 37.5404C19.9348 37.2991 20.1581 36.9609 20.2573 36.579L20.3038 36.4005C20.3683 36.153 20.4163 35.9048 20.4565 35.6565H30.1637C30.1506 35.724 30.1315 35.7893 30.1198 35.8575C30.0771 36.1074 30.0896 36.3637 30.1564 36.6082C30.2233 36.8528 30.3429 37.0797 30.5068 37.2731C30.6753 37.4732 30.8855 37.634 31.1228 37.7441C31.36 37.8543 31.6185 37.9111 31.8801 37.9106H32.1568C32.4181 39.3111 33.1609 40.576 34.2567 41.4863C35.3525 42.3966 36.7323 42.8949 38.1568 42.8949C39.5814 42.8949 40.9611 42.3966 42.0569 41.4863C43.1527 40.576 43.8956 39.3111 44.1568 37.9106H44.4313C44.6931 37.9108 44.9518 37.8536 45.1891 37.743C45.4264 37.6325 45.6366 37.4714 45.805 37.2709C45.9691 37.0777 46.0889 36.8509 46.156 36.6065C46.223 36.3621 46.2357 36.1059 46.1931 35.856ZM29.0785 9.60001C28.9542 9.59981 28.8351 9.55036 28.7472 9.4625C28.6594 9.37463 28.6099 9.25552 28.6097 9.13126V6.88126C28.6097 6.75694 28.6591 6.63771 28.747 6.5498C28.8349 6.4619 28.9541 6.41251 29.0785 6.41251C29.2028 6.41251 29.322 6.4619 29.4099 6.5498C29.4978 6.63771 29.5472 6.75694 29.5472 6.88126V9.13126C29.5471 9.25555 29.4977 9.37472 29.4098 9.46261C29.3219 9.55049 29.2027 9.59991 29.0785 9.60001ZM34.0408 17.3018C34.2295 16.9447 34.322 16.5448 34.3091 16.1411C34.2962 15.7375 34.1784 15.3443 33.9673 15L38.2716 14.1589V17.8136L34.0408 17.3018ZM39.5841 13.5143C39.5841 13.3899 39.6335 13.2707 39.7214 13.1828C39.8093 13.0949 39.9285 13.0455 40.0528 13.0455C40.1772 13.0455 40.2964 13.0949 40.3843 13.1828C40.4722 13.2707 40.5216 13.3899 40.5216 13.5143V18.0143C40.5216 18.1386 40.4722 18.2578 40.3843 18.3457C40.2964 18.4336 40.1772 18.483 40.0528 18.483C39.9285 18.483 39.8093 18.4336 39.7214 18.3457C39.6335 18.2578 39.5841 18.1386 39.5841 18.0143V13.5143ZM30.9351 16.2143C30.9351 16.0103 30.9956 15.8109 31.1089 15.6413C31.2222 15.4717 31.3833 15.3396 31.5717 15.2615C31.7601 15.1835 31.9675 15.163 32.1675 15.2028C32.3676 15.2426 32.5513 15.3408 32.6955 15.4851C32.8398 15.6293 32.938 15.813 32.9778 16.0131C33.0176 16.2131 32.9971 16.4205 32.9191 16.6089C32.841 16.7973 32.7089 16.9584 32.5393 17.0717C32.3697 17.185 32.1703 17.2455 31.9663 17.2455C31.693 17.2452 31.431 17.1366 31.2377 16.9434C31.0444 16.7502 30.9356 16.4883 30.9351 16.215V16.2143ZM4.21858 9.29551H14.1561V10.233H4.21858V9.29551ZM4.21858 11.5455H14.1561V19.233H4.21858V11.5455ZM22.1248 20.5455C22.3983 20.5455 22.6606 20.6542 22.854 20.8476C23.0474 21.041 23.1561 21.3033 23.1561 21.5768C23.1561 21.8503 23.0474 22.1126 22.854 22.306C22.6606 22.4994 22.3983 22.608 22.1248 22.608H9.03096C8.75745 22.608 8.49515 22.4994 8.30175 22.306C8.10836 22.1126 7.99971 21.8503 7.99971 21.5768C7.99971 21.3033 8.10836 21.041 8.30175 20.8476C8.49515 20.6542 8.75745 20.5455 9.03096 20.5455H22.1248ZM10.6723 41.5875C9.5977 41.5824 8.55569 41.2178 7.71231 40.5518C6.86892 39.8858 6.27269 38.9567 6.01858 37.9125H6.98608C7.22483 38.7044 7.71224 39.3984 8.37617 39.8917C9.04009 40.385 9.84522 40.6513 10.6723 40.6513C11.4994 40.6513 12.3046 40.385 12.9685 39.8917C13.6324 39.3984 14.1198 38.7044 14.3586 37.9125H15.3261C15.072 38.9567 14.4757 39.8858 13.6324 40.5518C12.789 41.2178 11.747 41.5824 10.6723 41.5875ZM8.39083 37.9125H12.9538C12.7455 38.3403 12.4212 38.7009 12.0177 38.9531C11.6143 39.2054 11.1481 39.3391 10.6723 39.3391C10.1965 39.3391 9.73034 39.2054 9.32692 38.9531C8.92351 38.7009 8.59914 38.3403 8.39083 37.9125ZM19.0326 36.0705L18.9861 36.249C18.96 36.3495 18.9013 36.4385 18.8192 36.502C18.737 36.5656 18.6362 36.6 18.5323 36.6H3.56233C3.49083 36.6 3.42028 36.5836 3.35609 36.5521C3.2919 36.5206 3.23577 36.4749 3.192 36.4183C3.14824 36.3618 3.118 36.296 3.1036 36.2259C3.08921 36.1559 3.09104 36.0835 3.10896 36.0143C3.65328 33.9025 4.843 32.0132 6.51225 30.6098C8.1815 29.2064 10.2471 28.3589 12.421 28.1854C12.5957 28.1715 12.769 28.1648 12.9418 28.1648C13.9048 28.168 14.8542 28.3913 15.7175 28.8178C16.5809 29.2442 17.3353 29.8625 17.923 30.6252C18.5108 31.388 18.9163 32.275 19.1086 33.2185C19.3009 34.1621 19.2749 35.1371 19.0326 36.069V36.0705ZM20.5513 34.3455C20.532 33.3044 20.2999 32.2783 19.8693 31.3303C19.4387 30.3822 18.8187 29.5323 18.0474 28.8328C17.2761 28.1333 16.3699 27.5989 15.3844 27.2626C14.3989 26.9264 13.3551 26.7953 12.3171 26.8774C9.32065 27.1173 6.52933 28.4937 4.51483 30.7249C4.58747 29.3239 5.01254 27.9639 5.75066 26.7709C6.48878 25.578 7.51606 24.5906 8.73733 23.9003C8.83432 23.9131 8.93201 23.9199 9.02983 23.9205H21.9508C22.0032 24.0793 22.0302 24.2453 22.0311 24.4125C22.0307 25.0115 21.8705 25.5995 21.5668 26.1158L21.5293 26.1784C21.0368 27.014 20.8441 27.9927 20.9831 28.9527C21.1221 29.9127 21.5846 30.7965 22.294 31.458C22.8314 31.9615 23.5409 32.2408 24.2773 32.2388H27.2436C29.0333 32.2419 30.7665 31.6126 32.1373 30.462C32.9014 29.8262 33.5318 29.0453 33.9921 28.1644C34.7214 26.7843 35.0079 25.2131 34.8126 23.6644L34.1833 18.6413L36.7446 18.9521C38.2231 22.2115 39.1948 25.6776 39.6261 29.2305C39.1411 29.1426 38.6493 29.0984 38.1565 29.0985C36.5042 29.0952 34.8901 29.5952 33.529 30.532C32.1679 31.4688 31.1245 32.798 30.5376 34.3425L20.5513 34.3455ZM38.1561 41.5875C37.0814 41.5824 36.0394 41.2178 35.1961 40.5518C34.3527 39.8858 33.7564 38.9567 33.5023 37.9125H34.4698C34.7086 38.7044 35.196 39.3984 35.8599 39.8917C36.5238 40.385 37.329 40.6513 38.1561 40.6513C38.9832 40.6513 39.7883 40.385 40.4522 39.8917C41.1162 39.3984 41.6036 38.7044 41.8423 37.9125H42.8125C42.5572 38.9566 41.9603 39.8854 41.1166 40.5513C40.2729 41.2171 39.2309 41.5819 38.1561 41.5875ZM35.8746 37.9125H40.4376C40.2293 38.3403 39.9049 38.7009 39.5015 38.9531C39.0981 39.2054 38.6319 39.3391 38.1561 39.3391C37.6803 39.3391 37.2141 39.2054 36.8107 38.9531C36.4073 38.7009 36.0829 38.3403 35.8746 37.9125ZM44.8022 36.4275C44.757 36.4815 44.7005 36.5249 44.6366 36.5547C44.5728 36.5845 44.5033 36.6 44.4328 36.6H31.8801C31.8097 36.6 31.7401 36.5847 31.6763 36.5549C31.6125 36.5252 31.556 36.4818 31.5107 36.4279C31.47 36.3808 31.4402 36.3253 31.4233 36.2653C31.4065 36.2054 31.403 36.1424 31.4132 36.081C31.6903 34.4937 32.5185 33.055 33.752 32.0183C34.9855 30.9815 36.5451 30.4131 38.1565 30.4131C39.7678 30.4131 41.3274 30.9815 42.5609 32.0183C43.7944 33.055 44.6226 34.4937 44.8997 36.081C44.9097 36.1422 44.9062 36.2047 44.8894 36.2644C44.8725 36.324 44.8428 36.3792 44.8022 36.426V36.4275Z" fill="#131313"/>
<path d="M8.69273 30.2509C8.14853 30.5474 7.63437 30.8961 7.15748 31.2919C7.0281 31.4045 6.94791 31.5632 6.93404 31.7341C6.92017 31.905 6.97372 32.0746 7.08325 32.2066C7.19278 32.3385 7.34959 32.4224 7.52015 32.4403C7.69071 32.4581 7.86149 32.4085 7.99598 32.3021C8.40731 31.96 8.85089 31.6586 9.32048 31.4021C9.47324 31.3189 9.58668 31.1784 9.63584 31.0115C9.685 30.8446 9.66585 30.665 9.5826 30.5123C9.49936 30.3595 9.35884 30.2461 9.19195 30.1969C9.02507 30.1477 8.84549 30.1669 8.69273 30.2501V30.2509Z" fill="#131313"/>
</svg>
