<svg width="48" height="48" viewBox="0 0 48 48" fill="none" xmlns="http://www.w3.org/2000/svg">
<path d="M28.5 9.75C28.5 8.85999 28.2361 7.98996 27.7416 7.24994C27.2471 6.50991 26.5443 5.93314 25.7221 5.59254C24.8998 5.25195 23.995 5.16283 23.1221 5.33647C22.2492 5.5101 21.4474 5.93869 20.818 6.56802C20.1887 7.19736 19.7601 7.99918 19.5865 8.87209C19.4128 9.74501 19.5019 10.6498 19.8425 11.4721C20.1831 12.2943 20.7599 12.9971 21.4999 13.4916C22.24 13.9861 23.11 14.25 24 14.25C25.1931 14.2487 26.3369 13.7741 27.1805 12.9305C28.0241 12.0869 28.4987 10.9431 28.5 9.75ZM21 9.75C21 9.15666 21.1759 8.57664 21.5056 8.08329C21.8352 7.58994 22.3038 7.20543 22.852 6.97836C23.4001 6.7513 24.0033 6.69189 24.5853 6.80765C25.1672 6.9234 25.7018 7.20912 26.1213 7.62868C26.5409 8.04824 26.8266 8.58279 26.9424 9.16473C27.0581 9.74667 26.9987 10.3499 26.7716 10.8981C26.5446 11.4462 26.1601 11.9148 25.6667 12.2444C25.1734 12.5741 24.5933 12.75 24 12.75C23.2046 12.7491 22.4421 12.4327 21.8797 11.8703C21.3173 11.3079 21.0009 10.5454 21 9.75Z" fill="#131313"/>
<path d="M23.5699 22.3644C23.6959 22.4527 23.8461 22.5 24 22.5C24.1539 22.5 24.3041 22.4527 24.4301 22.3644C25.8545 21.3151 27.1578 20.1107 28.316 18.7733C30.8896 15.8137 32.25 12.6938 32.25 9.75C32.25 7.56196 31.3808 5.46354 29.8336 3.91637C28.2865 2.36919 26.188 1.5 24 1.5C21.812 1.5 19.7135 2.36919 18.1664 3.91637C16.6192 5.46354 15.75 7.56196 15.75 9.75C15.75 12.6938 17.1104 15.8137 19.684 18.7733C20.8422 20.1107 22.1455 21.3151 23.5699 22.3644ZM24 3C25.7896 3.00201 27.5053 3.71381 28.7708 4.97925C30.0362 6.24468 30.748 7.96041 30.75 9.75C30.75 15.1163 25.5485 19.5962 24 20.8109C22.4492 19.5977 17.25 15.1267 17.25 9.75C17.252 7.96041 17.9638 6.24468 19.2292 4.97925C20.4947 3.71381 22.2104 3.00201 24 3Z" fill="#131313"/>
<path d="M14.0369 40.4609L14.4779 39.0269L15.9782 39.4883L15.5372 40.9223L14.0369 40.4609Z" fill="#131313"/>
<path d="M17.0366 41.3807L17.4776 39.9467L18.978 40.408L18.5369 41.8421L17.0366 41.3807Z" fill="#131313"/>
<path d="M20.0371 42.3062L20.4781 40.8722L21.9784 41.3336L21.5374 42.7676L20.0371 42.3062Z" fill="#131313"/>
<path d="M43.7206 18.7832L32.4706 15.3217L32.0294 16.7554L40.95 19.5L24 24.7153L7.05 19.5L15.9703 16.7554L15.5291 15.3217L4.27913 18.7832C4.12589 18.8304 3.99182 18.9255 3.89659 19.0545C3.80136 19.1835 3.74998 19.3397 3.75 19.5V39.75C3.75 39.9104 3.80142 40.0665 3.8967 40.1956C3.99199 40.3246 4.12612 40.4196 4.27941 40.4668L23.7794 46.4668C23.9231 46.511 24.0769 46.511 24.2206 46.4668L43.7206 40.4668C43.8739 40.4196 44.008 40.3246 44.1033 40.1956C44.1986 40.0665 44.25 39.9104 44.25 39.75V19.5C44.25 19.3396 44.1986 19.1835 44.1033 19.0544C44.008 18.9254 43.8739 18.8304 43.7206 18.7832ZM5.25 20.5155L23.25 26.054V44.7345L5.25 39.1961V20.5155ZM24.75 44.7345V26.054L42.75 20.5155V39.1961L24.75 44.7345Z" fill="#131313"/>
<path d="M33.5344 39.0434L35.0347 38.582L35.4757 40.016L33.9754 40.4774L33.5344 39.0434Z" fill="#131313"/>
<path d="M36.5334 38.1231L38.0338 37.6617L38.4748 39.0958L36.9745 39.5572L36.5334 38.1231Z" fill="#131313"/>
<path d="M39.5356 37.1973L41.036 36.7359L41.477 38.1699L39.9766 38.6313L39.5356 37.1973Z" fill="#131313"/>
<path d="M18 31.7884C18.1989 31.7884 18.3897 31.7094 18.5303 31.5688C18.671 31.4281 18.75 31.2374 18.75 31.0384V27.2884C18.75 27.1281 18.6986 26.9719 18.6033 26.8429C18.508 26.7139 18.3739 26.6188 18.2206 26.5716L10.7206 24.2639C10.6084 24.2294 10.4897 24.2217 10.374 24.2414C10.2583 24.2611 10.1488 24.3077 10.0544 24.3774C9.95999 24.4472 9.88326 24.5381 9.83039 24.6429C9.77752 24.7477 9.74999 24.8634 9.75 24.9808V28.7308C9.75 28.8912 9.80142 29.0473 9.8967 29.1763C9.99199 29.3054 10.1261 29.4004 10.2794 29.4476L17.7794 31.7554C17.8509 31.7773 17.9252 31.7885 18 31.7884ZM17.25 30.0229L11.25 28.1769V25.9963L17.25 27.8423V30.0229Z" fill="#131313"/>
<path d="M38.25 28.7308V24.9808C38.25 24.8634 38.2225 24.7477 38.1696 24.6429C38.1167 24.5381 38.04 24.4472 37.9456 24.3774C37.8512 24.3077 37.7417 24.2611 37.626 24.2414C37.5103 24.2217 37.3916 24.2294 37.2794 24.2639L29.7794 26.5716C29.6261 26.6188 29.492 26.7139 29.3967 26.8429C29.3014 26.9719 29.25 27.1281 29.25 27.2885V31.0385C29.25 31.1558 29.2775 31.2716 29.3304 31.3764C29.3833 31.4812 29.46 31.5721 29.5544 31.6418C29.6488 31.7115 29.7583 31.7582 29.874 31.7779C29.9897 31.7976 30.1084 31.7899 30.2206 31.7554L37.7206 29.4476C37.8739 29.4004 38.008 29.3054 38.1033 29.1764C38.1986 29.0473 38.25 28.8912 38.25 28.7308ZM36.75 28.1769L30.75 30.023V27.8423L36.75 25.9963V28.1769Z" fill="#131313"/>
</svg>
