<svg width="45" height="45" viewBox="0 0 45 45" fill="none" xmlns="http://www.w3.org/2000/svg">
<g clip-path="url(#clip0)">
<path d="M13.074 30.2354H7.48691C6.45842 30.2354 5.62451 29.4016 5.62451 28.373V13.1127C5.62451 12.0842 6.45833 11.2503 7.48691 11.2503H13.0741C14.1026 11.2503 14.9365 12.0841 14.9365 13.1127V28.373C14.9364 29.4015 14.1026 30.2354 13.074 30.2354Z" fill="#55D4BE"/>
<path d="M7.48691 27.4417V11.2503C6.45842 11.2503 5.62451 12.0841 5.62451 13.1127V28.373C5.62451 29.4015 6.45833 30.2354 7.48691 30.2354H13.0741C14.1026 30.2354 14.9365 29.4016 14.9365 28.373H8.41802C7.90377 28.373 7.48691 27.956 7.48691 27.4417Z" fill="#24BFB2"/>
<path d="M10.2804 27.4414C11.0518 27.4414 11.6772 26.816 11.6772 26.0446C11.6772 25.2731 11.0518 24.6477 10.2804 24.6477C9.50893 24.6477 8.88354 25.2731 8.88354 26.0446C8.88354 26.816 9.50893 27.4414 10.2804 27.4414Z" fill="#F2EDEC"/>
<path d="M40.0786 13.447C40.0786 12.1613 39.0364 11.1189 37.7507 11.1189H26.0157C26.0157 11.1189 27.012 9.90148 27.4221 7.03141C28.1252 2.10937 26.3601 0.218937 24.6095 0.00536341C24.1739 -0.0478103 23.7909 0.294611 23.7909 0.733448C23.7909 0.733448 23.3489 5.33381 22.5001 7.03133C20.3907 11.2502 14.9365 13.3596 14.9365 13.3596V28.3549C14.9365 28.3549 16.1717 29.7428 18.6612 29.7428C24.6095 29.7428 35.8884 29.7428 35.8884 29.7428C37.174 29.7428 38.2163 28.7005 38.2163 27.4148C38.2163 26.129 37.1741 25.0868 35.8884 25.0868H36.8196C38.1052 25.0868 39.1475 24.0445 39.1475 22.7587C39.1475 21.473 38.1053 20.4308 36.8196 20.4308H37.7508C39.0364 20.4308 40.0787 19.3885 40.0787 18.1027C40.0787 16.8171 39.0365 15.7747 37.7508 15.7747C39.0364 15.7749 40.0786 14.7327 40.0786 13.447Z" fill="#FCE780"/>
<path d="M40.0786 13.447C40.0786 12.1613 39.0364 11.1189 37.7507 11.1189H26.0157C26.0157 11.1189 27.012 9.90148 27.4221 7.03141C28.1252 2.10937 26.3601 0.218937 24.6095 0.00536341C24.1739 -0.0478103 23.7909 0.294611 23.7909 0.733448C23.7909 0.733448 23.3489 5.33381 22.5001 7.03133C20.3907 11.2502 14.9365 13.3596 14.9365 13.3596V28.3549C14.9365 28.3549 16.1717 29.7428 18.6612 29.7428C24.6095 29.7428 35.8884 29.7428 35.8884 29.7428C37.174 29.7428 38.2163 28.7005 38.2163 27.4148C38.2163 26.129 37.1741 25.0868 35.8884 25.0868H36.8196C38.1052 25.0868 39.1475 24.0445 39.1475 22.7587C39.1475 21.473 38.1053 20.4308 36.8196 20.4308H37.7508C39.0364 20.4308 40.0787 19.3885 40.0787 18.1027C40.0787 16.8171 39.0365 15.7747 37.7508 15.7747C39.0364 15.7749 40.0786 14.7327 40.0786 13.447Z" fill="#FEE2CA"/>
<path d="M35.8883 28.3366C35.8883 28.3366 24.6094 28.3366 18.6611 28.3366C16.1716 28.3366 14.9364 26.9487 14.9364 26.9487V28.3551C14.9364 28.3551 16.1716 29.7429 18.6611 29.7429C24.6094 29.7429 35.8883 29.7429 35.8883 29.7429C37.1739 29.7429 38.2162 28.7007 38.2162 27.415C38.2162 27.1699 38.1781 26.9337 38.1078 26.7119C37.8097 27.6538 36.9289 28.3366 35.8883 28.3366Z" fill="#FDD0AB"/>
<path d="M37.7508 13.9125H35.4229V15.7749H37.7508C39.0365 15.7749 40.0788 14.7327 40.0788 13.447C40.0788 13.1156 40.0085 12.8012 39.8837 12.5158C39.5244 13.3376 38.7052 13.9125 37.7508 13.9125Z" fill="#FDD0AB"/>
<path d="M37.7508 18.5685H35.4229V20.4309H37.7508C39.0365 20.4309 40.0788 19.3887 40.0788 18.103C40.0788 17.7716 40.0085 17.4572 39.8837 17.1718C39.5244 17.9936 38.7052 18.5685 37.7508 18.5685Z" fill="#FDD0AB"/>
<path d="M36.8196 23.2245H35.4227V25.0869H36.8196C38.1052 25.0869 39.1476 24.0447 39.1476 22.759C39.1476 22.4276 39.0774 22.1132 38.9526 21.8278C38.5931 22.6496 37.774 23.2245 36.8196 23.2245Z" fill="#FDD0AB"/>
<path d="M28.2528 36.9204H24.3372L23.1272 33.1964C23.0389 32.9247 22.7858 32.7409 22.5002 32.7409C22.2147 32.7409 21.9616 32.9247 21.8733 33.1964L20.6633 36.9204H16.7477C16.4622 36.9204 16.209 37.1043 16.1208 37.376C16.0326 37.6475 16.1292 37.9451 16.3603 38.1129L19.5281 40.4146L18.3182 44.1386C18.2337 44.3983 18.3225 44.6909 18.537 44.8599C18.7662 45.0405 19.0964 45.0471 19.3325 44.8756L22.5003 42.5739L25.6682 44.8756C25.9159 45.0556 26.2642 45.0382 26.4931 44.8352C26.6873 44.663 26.7628 44.3855 26.6825 44.1387L25.4725 40.4147L28.6404 38.113C28.8714 37.9452 28.9681 37.6476 28.8799 37.376C28.7914 37.1042 28.5383 36.9204 28.2528 36.9204Z" fill="#FA892D"/>
<path d="M44.9246 37.3759C44.8363 37.1042 44.5832 36.9203 44.2976 36.9203H40.382L39.1721 33.1963C39.0849 32.9278 38.8274 32.7408 38.5451 32.7408C38.2628 32.7408 38.0055 32.9277 37.9182 33.1963L36.7082 36.9203H32.7925C32.507 36.9203 32.2538 37.1042 32.1656 37.3759C32.0774 37.6474 32.174 37.945 32.4051 38.1128L35.5729 40.4145L34.3627 44.1386C34.2782 44.3983 34.367 44.6909 34.5815 44.8599C34.8108 45.0405 35.141 45.0471 35.377 44.8755L38.5449 42.5739L41.7127 44.8755C41.9605 45.0555 42.3087 45.0382 42.5377 44.8352C42.7319 44.663 42.8074 44.3855 42.7271 44.1387L41.5171 40.4147L44.685 38.113C44.9161 37.945 45.0129 37.6474 44.9246 37.3759Z" fill="#FA892D"/>
<path d="M12.2078 36.9213H8.29204L7.08206 33.1973C6.99381 32.9257 6.74069 32.7418 6.45513 32.7418C6.16958 32.7418 5.91645 32.9257 5.82821 33.1973L4.61822 36.9213H0.702439C0.416883 36.9213 0.163758 37.1052 0.0755161 37.3769C-0.0127259 37.6485 0.0839536 37.946 0.315018 38.1138L3.48285 40.4155L2.27287 44.1396C2.1884 44.3993 2.27717 44.6919 2.49171 44.8609C2.72093 45.0415 3.05114 45.0481 3.2873 44.8766L6.45513 42.5749L9.62297 44.8766C9.87073 45.0566 10.219 45.0393 10.4479 44.8362C10.6421 44.664 10.7176 44.3865 10.6373 44.1397L9.42732 40.4157L12.5952 38.114C12.8262 37.9462 12.9229 37.6486 12.8347 37.377C12.7465 37.1051 12.4934 36.9213 12.2078 36.9213Z" fill="#FA892D"/>
</g>
<defs>
<clipPath id="clip0">
<rect width="45" height="45" fill="white"/>
</clipPath>
</defs>
</svg>
